<svg xmlns="http://www.w3.org/2000/svg" xml:space="preserve" width="800" height="800" viewBox="0 0 53.363 53.363"><path d="M26.682 0c-13.255 0-24 10.745-24 24s10.745 24 24 24c.672 0 1.341-.035 2.007-.094 1.104-.098 1.335.43.449 1.174-2.137 1.793-4.591 3.229-7.291 3.816-1.13.244-1.144.403.011.449 6.108.235 12.592-1.914 17.375-5.546 7.155-5.43 11.449-14.87 11.449-23.801C50.682 10.746 39.936 0 26.682 0zm1.708 31.355h-16a1.5 1.5 0 1 1 0-3h16a1.5 1.5 0 0 1 0 3zm12-6h-28a1.5 1.5 0 1 1 0-3h28a1.5 1.5 0 1 1 0 3zm0-6h-28a1.5 1.5 0 1 1 0-3h28a1.5 1.5 0 1 1 0 3z"/></svg>