<?xml version="1.0" encoding="iso-8859-1"?>
<!-- Uploaded to: SVG Repo, www.svgrepo.com, Generator: SVG Repo Mixer Tools -->
<!DOCTYPE svg PUBLIC "-//W3C//DTD SVG 1.1//EN" "http://www.w3.org/Graphics/SVG/1.1/DTD/svg11.dtd">
<svg fill="#000000" version="1.1" id="Capa_1" xmlns="http://www.w3.org/2000/svg" xmlns:xlink="http://www.w3.org/1999/xlink" 
	 width="800px" height="800px" viewBox="0 0 53.363 53.363"
	 xml:space="preserve">
<g>
	<path d="M26.682,0c-13.255,0-24,10.745-24,24s10.745,24,24,24c0.672,0,1.341-0.035,2.007-0.094c1.104-0.098,1.335,0.43,0.449,1.174
		c-2.137,1.793-4.591,3.229-7.291,3.816c-1.13,0.244-1.144,0.403,0.011,0.449c6.108,0.235,12.592-1.914,17.375-5.546
		c7.155-5.43,11.449-14.87,11.449-23.801C50.682,10.746,39.936,0,26.682,0z M28.39,31.355h-16c-0.829,0-1.5-0.672-1.5-1.5
		s0.671-1.5,1.5-1.5h16c0.828,0,1.5,0.672,1.5,1.5S29.218,31.355,28.39,31.355z M40.39,25.355h-28c-0.829,0-1.5-0.671-1.5-1.5
		s0.671-1.5,1.5-1.5h28c0.828,0,1.5,0.671,1.5,1.5S41.218,25.355,40.39,25.355z M40.39,19.355h-28c-0.829,0-1.5-0.671-1.5-1.5
		s0.671-1.5,1.5-1.5h28c0.828,0,1.5,0.671,1.5,1.5S41.218,19.355,40.39,19.355z"/>
</g>
</svg>